<svg width="201" height="155" viewBox="0 0 201 155" fill="none" xmlns="http://www.w3.org/2000/svg">
<rect width="201" height="155" fill="none"/>
<path d="M193.505 95.6136C193.505 144.767 152.315 154.114 101.505 154.114C50.6949 154.114 9.50513 144.767 9.50513 95.6136C9.50513 46.4603 50.6949 6.61365 101.505 6.61365C152.315 6.61365 193.505 46.4603 193.505 95.6136Z" fill="#F9E3BF"/>
<path d="M42.1834 5.15664C58.3441 -0.945275 79.6507 0.233865 88.2839 1.58618L103.201 8.21822L119.005 24.1136L100.505 45.1136C90.8008 54.1117 88.1834 59.3583 81.5051 61.1136C62.0051 66.2389 39.5051 67.3666 23.0208 66.2389C6.5364 65.1112 0.29449 66.8317 0.505122 63.6137C0.715754 60.3956 3.14617 55.9055 3.92824 52.1863C9.94637 39.0522 26.0228 11.2586 42.1834 5.15664Z" fill="#D9D9D9"/>
<path d="M42.1834 5.15664C58.3441 -0.945275 79.6507 0.233865 88.2839 1.58618L103.201 8.21822L119.005 24.1136L100.505 45.1136C90.8008 54.1117 88.1834 59.3583 81.5051 61.1136C62.0051 66.2389 39.5051 67.3666 23.0208 66.2389C6.5364 65.1112 0.29449 66.8317 0.505122 63.6137C0.715754 60.3956 3.14617 55.9055 3.92824 52.1863C9.94637 39.0522 26.0228 11.2586 42.1834 5.15664Z" fill="#0C0101"/>
<path d="M42.1834 5.15664C58.3441 -0.945275 79.6507 0.233865 88.2839 1.58618L103.201 8.21822L119.005 24.1136L100.505 45.1136C90.8008 54.1117 88.1834 59.3583 81.5051 61.1136C62.0051 66.2389 39.5051 67.3666 23.0208 66.2389C6.5364 65.1112 0.29449 66.8317 0.505122 63.6137C0.715754 60.3956 3.14617 55.9055 3.92824 52.1863C9.94637 39.0522 26.0228 11.2586 42.1834 5.15664Z" stroke="black"/>
<path d="M158.826 5.32903C142.666 -0.772881 121.359 0.406259 112.726 1.75857L97.8089 8.39062L82.0046 24.286L100.505 45.286C110.209 54.2841 112.826 59.5307 119.505 61.286C139.005 66.4113 161.505 67.539 177.989 66.4113C194.473 65.2836 200.715 67.0041 200.505 63.786C200.294 60.568 197.864 56.0779 197.082 52.3587C191.063 39.2246 174.987 11.4309 158.826 5.32903Z" fill="#D9D9D9"/>
<path d="M158.826 5.32903C142.666 -0.772881 121.359 0.406259 112.726 1.75857L97.8089 8.39062L82.0046 24.286L100.505 45.286C110.209 54.2841 112.826 59.5307 119.505 61.286C139.005 66.4113 161.505 67.539 177.989 66.4113C194.473 65.2836 200.715 67.0041 200.505 63.786C200.294 60.568 197.864 56.0779 197.082 52.3587C191.063 39.2246 174.987 11.4309 158.826 5.32903Z" fill="#0C0101"/>
<path d="M158.826 5.32903C142.666 -0.772881 121.359 0.406259 112.726 1.75857L97.8089 8.39062L82.0046 24.286L100.505 45.286C110.209 54.2841 112.826 59.5307 119.505 61.286C139.005 66.4113 161.505 67.539 177.989 66.4113C194.473 65.2836 200.715 67.0041 200.505 63.786C200.294 60.568 197.864 56.0779 197.082 52.3587C191.063 39.2246 174.987 11.4309 158.826 5.32903Z" stroke="black"/>
<path d="M78.5051 87.6136H122.005" stroke="black" stroke-width="3" stroke-linecap="round"/>
<rect x="58.0051" y="80.1136" width="37" height="15" fill="#D9D9D9" stroke="black" stroke-width="3" stroke-linecap="round" stroke-linejoin="round"/>
<rect x="110.005" y="80.1136" width="37" height="15" fill="#D9D9D9" stroke="black" stroke-width="3" stroke-linecap="round" stroke-linejoin="round"/>
<ellipse cx="46.5051" cy="112.114" rx="11" ry="8.5" fill="#F9BFBF"/>
<ellipse cx="160.505" cy="112.114" rx="11" ry="8.5" fill="#F9BFBF"/>
<path d="M102.005 120.114C106.874 120.114 111.202 119.924 114.355 120.078C115.932 120.155 117.15 120.317 117.961 120.607C118.364 120.752 118.629 120.915 118.788 121.081C118.935 121.235 119.005 121.402 119.005 121.614C119.005 122.095 118.642 122.815 117.778 123.674C116.936 124.509 115.699 125.395 114.148 126.206C111.047 127.826 106.751 129.114 102.005 129.114C97.2595 129.114 92.9636 127.826 89.8625 126.206C88.3112 125.395 87.0739 124.509 86.2327 123.674C85.3684 122.815 85.0054 122.095 85.0051 121.614C85.0051 121.402 85.0748 121.235 85.2219 121.081C85.3812 120.915 85.6458 120.752 86.0491 120.607C86.8603 120.317 88.0785 120.155 89.6555 120.078C92.8086 119.924 97.1361 120.114 102.005 120.114Z" fill="#EEEEEE" stroke="black"/>
</svg>
